<svg viewBox="0 0 512 512" xmlns="http://www.w3.org/2000/svg">
  <!-- Orange background -->
  <rect width="512" height="512" rx="90" fill="#ff8c42"/>
  
  <!-- Calendar base -->
  <rect x="120" y="160" width="240" height="180" rx="8" fill="#f5f5f5"/>
  
  <!-- Calendar header -->
  <rect x="120" y="140" width="240" height="40" rx="8" fill="#4a5568"/>
  
  <!-- Calendar rings -->
  <rect x="160" y="120" width="16" height="40" rx="8" fill="#4a5568"/>
  <rect x="336" y="120" width="16" height="40" rx="8" fill="#4a5568"/>
  
  <!-- Calendar squares -->
  <rect x="140" y="200" width="30" height="30" rx="4" fill="#d4d4d4"/>
  <rect x="180" y="200" width="30" height="30" rx="4" fill="#d4d4d4"/>
  <rect x="220" y="200" width="50" height="30" rx="4" fill="#d4d4d4"/>
  <rect x="140" y="240" width="30" height="30" rx="4" fill="#d4d4d4"/>
  <rect x="180" y="240" width="30" height="30" rx="4" fill="#d4d4d4"/>
  
  <!-- Truck -->
  <g transform="translate(280,260)">
    <!-- Truck cab -->
    <rect x="0" y="20" width="40" height="40" rx="4" fill="#4a5568"/>
    <!-- Truck bed -->
    <rect x="40" y="25" width="60" height="35" rx="4" fill="#4a5568"/>
    <!-- Truck windshield -->
    <rect x="5" y="25" width="30" height="20" rx="2" fill="#f5f5f5"/>
    <!-- Wheels -->
    <circle cx="15" cy="70" r="12" fill="#2d3748"/>
    <circle cx="15" cy="70" r="6" fill="#f5f5f5"/>
    <circle cx="85" cy="70" r="12" fill="#2d3748"/>
    <circle cx="85" cy="70" r="6" fill="#f5f5f5"/>
  </g>
  
  <!-- Location pin -->
  <g transform="translate(380,120)">
    <circle cx="0" cy="40" r="30" fill="#e53e3e"/>
    <circle cx="0" cy="40" r="12" fill="#ffffff"/>
  </g>
</svg>